<svg version="1.1" id="Layer_1" xmlns="http://www.w3.org/2000/svg" xmlns:xlink="http://www.w3.org/1999/xlink" x="0px" y="0px"
	 width="100%" viewBox="0 0 256 256" enable-background="new 0 0 256 256" xml:space="preserve">
<path fill="#FFFFFF" opacity="1.000000" stroke="none" 
	d="
M257.000000,146.000000 
	C257.000000,182.963348 257.000000,219.926697 257.000000,256.945007 
	C171.787872,256.945007 86.575691,256.945007 1.000000,256.945007 
	C1.000000,232.313629 1.000000,207.625473 1.359889,182.574951 
	C3.571485,191.683121 14.589454,199.149719 23.191542,199.121323 
	C89.808403,198.901337 156.426331,199.005920 223.043900,198.967300 
	C224.790375,198.966293 226.565582,198.602905 228.278229,198.199661 
	C240.498138,195.322540 245.544434,185.717957 245.961960,174.158356 
	C246.178238,168.170578 245.919144,162.166626 246.062561,156.174469 
	C246.094482,154.841095 246.519714,153.011993 247.446854,152.298096 
	C250.460754,149.977341 253.791336,148.067825 257.000000,146.000000 
z"/>
<path fill="#FFFFFF" opacity="1.000000" stroke="none" 
	d="
M1.000000,76.000000 
	C1.000000,51.024761 1.000000,26.049519 1.000000,1.037140 
	C86.224045,1.037140 171.448120,1.037140 257.000000,1.037140 
	C257.000000,37.686909 257.000000,74.374794 256.651184,111.447014 
	C253.566910,109.879715 250.713867,108.067551 248.153030,105.908760 
	C247.108963,105.028610 246.133774,103.413445 246.094788,102.103874 
	C245.891632,95.280823 246.470474,88.408783 245.898010,81.628006 
	C244.839706,69.092415 237.224243,59.148930 223.319336,59.101891 
	C156.361618,58.875404 89.402695,58.994591 22.444220,59.033035 
	C20.865793,59.033943 19.272537,59.458202 17.711868,59.801643 
	C8.816875,61.759087 4.445951,68.407455 1.000000,76.000000 
z"/>
<path fill="#000000" opacity="1.000000" stroke="none" 
	d="
M1.000000,76.468658 
	C4.445951,68.407455 8.816875,61.759087 17.711868,59.801643 
	C19.272537,59.458202 20.865793,59.033943 22.444220,59.033035 
	C89.402695,58.994591 156.361618,58.875404 223.319336,59.101891 
	C237.224243,59.148930 244.839706,69.092415 245.898010,81.628006 
	C246.470474,88.408783 245.891632,95.280823 246.094788,102.103874 
	C246.133774,103.413445 247.108963,105.028610 248.153030,105.908760 
	C250.713867,108.067551 253.566910,109.879715 256.651184,111.915672 
	C257.000000,123.020897 257.000000,134.041794 257.000000,145.531342 
	C253.791336,148.067825 250.460754,149.977341 247.446854,152.298096 
	C246.519714,153.011993 246.094482,154.841095 246.062561,156.174469 
	C245.919144,162.166626 246.178238,168.170578 245.961960,174.158356 
	C245.544434,185.717957 240.498138,195.322540 228.278229,198.199661 
	C226.565582,198.602905 224.790375,198.966293 223.043900,198.967300 
	C156.426331,199.005920 89.808403,198.901337 23.191542,199.121323 
	C14.589454,199.149719 3.571485,191.683121 1.359889,182.106293 
	C1.000000,146.979111 1.000000,111.958214 1.000000,76.468658 
M84.500000,71.000000 
	C65.668709,71.000000 46.835491,70.839386 28.006905,71.065086 
	C18.003822,71.185005 13.030850,75.274025 13.014650,85.920464 
	C12.971544,114.250648 13.113657,142.581635 12.942268,170.910858 
	C12.876652,181.756638 17.387352,187.022324 29.337509,187.014984 
	C84.664803,186.981049 139.992142,187.000000 195.319458,187.000000 
	C203.318588,187.000000 211.317764,186.982071 219.316833,187.004745 
	C228.417847,187.030548 233.273682,180.737869 233.168900,173.327087 
	C232.756592,144.169434 232.665726,114.996498 233.188766,85.842384 
	C233.362213,76.174461 227.673080,70.915001 217.985428,70.943329 
	C173.823944,71.072495 129.661865,71.000000 84.500000,71.000000 
z"/>
<path fill="#FFFFFF" opacity="1.000000" stroke="none" 
	d="
M85.000000,71.000000 
	C129.661865,71.000000 173.823944,71.072495 217.985428,70.943329 
	C227.673080,70.915001 233.362213,76.174461 233.188766,85.842384 
	C232.665726,114.996498 232.756592,144.169434 233.168900,173.327087 
	C233.273682,180.737869 228.417847,187.030548 219.316833,187.004745 
	C211.317764,186.982071 203.318588,187.000000 195.319458,187.000000 
	C139.992142,187.000000 84.664803,186.981049 29.337509,187.014984 
	C17.387352,187.022324 12.876652,181.756638 12.942268,170.910858 
	C13.113657,142.581635 12.971544,114.250648 13.014650,85.920464 
	C13.030850,75.274025 18.003822,71.185005 28.006905,71.065086 
	C46.835491,70.839386 65.668709,71.000000 85.000000,71.000000 
M33.000000,141.499969 
	C33.000000,147.994431 32.979092,154.488983 33.005840,160.983322 
	C33.032974,167.570297 37.459087,171.992203 44.076534,171.993637 
	C97.031326,172.005051 149.986115,172.005188 202.940903,171.993423 
	C209.540253,171.991959 213.986343,167.552536 213.992859,160.965881 
	C214.012619,140.982956 214.013000,120.999992 213.992615,101.017075 
	C213.985901,94.429771 209.541321,90.007805 202.923874,90.006378 
	C149.969086,89.994957 97.014290,89.994820 44.059498,90.006569 
	C37.459072,90.008034 33.018814,94.446373 33.006996,101.033707 
	C32.983398,114.189095 33.000000,127.344566 33.000000,141.499969 
z"/>
<path fill="#000000" opacity="1.000000" stroke="none" 
	d="
M33.000000,140.999985 
	C33.000000,127.344566 32.983398,114.189095 33.006996,101.033707 
	C33.018814,94.446373 37.459072,90.008034 44.059498,90.006569 
	C97.014290,89.994820 149.969086,89.994957 202.923874,90.006378 
	C209.541321,90.007805 213.985901,94.429771 213.992615,101.017075 
	C214.013000,120.999992 214.012619,140.982956 213.992859,160.965881 
	C213.986343,167.552536 209.540253,171.991959 202.940903,171.993423 
	C149.986115,172.005188 97.031326,172.005051 44.076534,171.993637 
	C37.459087,171.992203 33.032974,167.570297 33.005840,160.983322 
	C32.979092,154.488983 33.000000,147.994431 33.000000,140.999985 
z"/>
</svg>